# xmcd
#
# Track frame offsets:
#	150
#	13381
#	27096
#	47930
#	64212
#	79219
#	99031
#	109758
#	122799
#	134232
#	150490
#	164512
#	177221
#	189111
#	205781
#	221557
#	235617
#
# Disc length: 3335 seconds
#
# Revision: 1
# Processed by: cddbd v1.5.2PL0 Copyright (c) Steve Scherf et al.
# Submitted via: audiograbber 1.83.01
#
DISCID=e60d0511
DTITLE=COMPILATION - ESP452-02
DYEAR=1900
DGENRE=
TTITLE0=Jerry Reed - Eastbound And Down
TTITLE1=Dolly Parton - Here You Come Again
TTITLE2=Pure Prairie League - Amie
TTITLE3=Jessi Colter - I'm Not Lisa
TTITLE4=Bellamy Brothers, The - Let Your Love Flow
TTITLE5=Marty Robbins - El Paso City
TTITLE6=Barbara Mandrell - Sleeping Single In A Double Bed
TTITLE7=Freddy Fender - Before The Next Teardrop Falls
TTITLE8=Kendalls, The - Heaven's Just A Sin Away
TTITLE9=Ronnie Milsap - It Was Almost Like A Song
TTITLE10=Emmylou Harris - Two More Bottles Of Wine
TTITLE11=Charley Pride - She's Just An Old Love Turned Memory
TTITLE12=Eddie Rabbitt - Drinking My Baby Off My Mind
TTITLE13=Dolly Parton - Heartbreaker
TTITLE14=Freddy Fender - Wasted Days And Wasted Nights
TTITLE15=Crystal Gayle - I'll Get Over You
TTITLE16=Mickey Gilley - Don't The Girls All Get Prettier At Closing Time
EXTD=
EXTT0=
EXTT1=
EXTT2=
EXTT3=
EXTT4=
EXTT5=
EXTT6=
EXTT7=
EXTT8=
EXTT9=
EXTT10=
EXTT11=
EXTT12=
EXTT13=
EXTT14=
EXTT15=
EXTT16=
PLAYORDER=
